<?xml version="1.0" encoding="utf-8"?>
<!-- Generated by IcoMoon.io -->
<!DOCTYPE svg PUBLIC "-//W3C//DTD SVG 1.1//EN" "http://www.w3.org/Graphics/SVG/1.1/DTD/svg11.dtd">
<svg version="1.1" xmlns="http://www.w3.org/2000/svg" xmlns:xlink="http://www.w3.org/1999/xlink" width="1024" height="1024" viewBox="0 0 1024 1024"><g id="icomoon-ignore">
</g>
<path d="M753.783 0h1.126c33.28 29.099 66.731 58.027 99.823 87.33-162.219 141.978-324.898 283.443-487.049 425.489 162.406 141.773 324.676 283.716 487.168 425.387-32.649 28.706-65.434 57.242-98.202 85.794h-4.54c-193.911-169.216-387.652-338.62-581.564-507.836 0.973-1.212 1.963-2.423 2.953-3.618-0.785-0.819-2.321-2.458-3.089-3.277 100.011-86.903 199.646-174.268 299.537-261.325 94.566-82.688 189.338-165.154 283.836-247.945z"></path>
</svg>
